# xmcd
#
# Track frame offsets: 
#        150
#        12323
#        27760
#        37440
#        51548
#        63447
#        75892
#        90152
#        100826
#        114390
#        126969
#        136713
#        149829
#        167332
#        174798
#        187541
#
# Disc length: 2706 seconds
#
# Revision: 0
# Processed by: cddbd v1.5.2PL0 Copyright (c) Steve Scherf et al.
# Submitted via: ExactAudioCopy v0.95b4
#
DISCID=c40a9010
DTITLE=João Chora - Alma em tom maior
DYEAR=1900
DGENRE=Fado
TTITLE0=Fonte
TTITLE1=O amor é louco
TTITLE2=Meu amor, nesse dia
TTITLE3=Fado sagitário
TTITLE4=Furto de amor
TTITLE5=Lisboa velha senhora
TTITLE6=Fado varina
TTITLE7=E não te posso esquecer
TTITLE8=www.lisboa.ribatejo
TTITLE9=Como é triste a Primavera
TTITLE10=O homem do Ribatejo
TTITLE11=O que trago e o que trazes
TTITLE12=Velho Fado
TTITLE13=Lindos lindos os teus olhos
TTITLE14=Eu quero ter eternamente este segredo
TTITLE15=Alma em tom maior
EXTD=
EXTT0=
EXTT1=
EXTT2=
EXTT3=
EXTT4=
EXTT5=
EXTT6=
EXTT7=
EXTT8=
EXTT9=
EXTT10=
EXTT11=
EXTT12=
EXTT13=
EXTT14=
EXTT15=
PLAYORDER=
